<svg width="200" height="200" viewBox="0 0 200 200" xmlns="http://www.w3.org/2000/svg">
  <defs>
    <linearGradient id="grad1" x1="0%" y1="0%" x2="100%" y2="100%">
      <stop offset="0%" style="stop-color:#667eea;stop-opacity:1" />
      <stop offset="100%" style="stop-color:#764ba2;stop-opacity:1" />
    </linearGradient>
  </defs>
  
  <!-- Background circle -->
  <circle cx="100" cy="100" r="90" fill="url(#grad1)" />
  
  <!-- AI Brain pattern -->
  <circle cx="100" cy="100" r="60" fill="none" stroke="white" stroke-width="2" opacity="0.3"/>
  <circle cx="100" cy="100" r="40" fill="none" stroke="white" stroke-width="2" opacity="0.5"/>
  <circle cx="100" cy="100" r="20" fill="none" stroke="white" stroke-width="2" opacity="0.7"/>
  
  <!-- Y letter -->
  <path d="M 70 60 L 85 85 L 100 60 M 85 85 L 85 120" stroke="white" stroke-width="6" fill="none" stroke-linecap="round"/>
  
  <!-- A letter -->
  <path d="M 110 120 L 120 90 L 130 120 M 115 105 L 125 105" stroke="white" stroke-width="4" fill="none" stroke-linecap="round"/>
  
  <!-- Neural network dots -->
  <circle cx="70" cy="80" r="3" fill="white" opacity="0.8"/>
  <circle cx="130" cy="80" r="3" fill="white" opacity="0.8"/>
  <circle cx="85" cy="140" r="3" fill="white" opacity="0.8"/>
  <circle cx="115" cy="140" r="3" fill="white" opacity="0.8"/>
  
  <!-- Connection lines -->
  <line x1="70" y1="80" x2="85" y2="85" stroke="white" stroke-width="1" opacity="0.6"/>
  <line x1="130" y1="80" x2="120" y2="90" stroke="white" stroke-width="1" opacity="0.6"/>
  <line x1="85" y1="120" x2="85" y2="140" stroke="white" stroke-width="1" opacity="0.6"/>
  <line x1="125" y1="105" x2="115" y2="140" stroke="white" stroke-width="1" opacity="0.6"/>
</svg>